<svg aria-hidden="true" style="position: absolute; width: 0; height: 0; overflow: hidden;" version="1.1" xmlns="http://www.w3.org/2000/svg" xmlns:xlink="http://www.w3.org/1999/xlink">
<defs>
<symbol id="icon-arrow-right" viewBox="0 0 23 24">
<path fill="none" stroke="#fafafa" style="stroke: var(--color1, #fafafa)" stroke-linejoin="round" stroke-linecap="round" stroke-miterlimit="4" stroke-width="1.6421" d="M3.474 12h12.632"></path>
<path fill="none" stroke="#fafafa" style="stroke: var(--color1, #fafafa)" stroke-linejoin="round" stroke-linecap="round" stroke-miterlimit="4" stroke-width="1.6421" d="M11.368 5.368l6.632 6.632-6.632 6.632"></path>
</symbol>
<symbol id="icon-edit" viewBox="0 0 24 24">
<path fill="none" stroke="#000" d="M2.843 18.409c0.058-0.522 0.087-0.784 0.166-1.028 0.070-0.217 0.169-0.423 0.294-0.613 0.141-0.214 0.327-0.4 0.699-0.772l12.997-12.997c1.105-1.105 2.895-1.105 4 0v0c1.105 1.105 1.105 2.895 0 4l-12.997 12.997c-0.372 0.371-0.557 0.557-0.772 0.699-0.19 0.125-0.396 0.224-0.613 0.294-0.244 0.079-0.505 0.108-1.028 0.166l-3.091 0.343 0.343-3.091z"></path>
</symbol>
<symbol id="icon-email" viewBox="0 0 28 24">
<path fill="none" stroke="#fafafa" style="stroke: var(--color1, #fafafa)" stroke-linejoin="round" stroke-linecap="round" stroke-miterlimit="4" stroke-width="2.5263" d="M1.263 5.684l10.314 7.219c0.835 0.585 1.253 0.877 1.707 0.99 0.401 0.1 0.821 0.1 1.222 0 0.454-0.113 0.872-0.405 1.707-0.99l10.314-7.219M7.326 22.105h13.137c2.122 0 3.183 0 3.994-0.413 0.713-0.363 1.293-0.943 1.656-1.656 0.413-0.811 0.413-1.872 0.413-3.994v-8.084c0-2.122 0-3.183-0.413-3.994-0.363-0.713-0.943-1.293-1.656-1.656-0.811-0.413-1.872-0.413-3.994-0.413h-13.137c-2.122 0-3.183 0-3.994 0.413-0.713 0.363-1.293 0.943-1.656 1.656-0.413 0.811-0.413 1.872-0.413 3.994v8.084c0 2.122 0 3.183 0.413 3.994 0.363 0.713 0.943 1.293 1.656 1.656 0.811 0.413 1.872 0.413 3.994 0.413z"></path>
</symbol>
<symbol id="icon-facebook" viewBox="0 0 23 24">
<path  d="M22.857 12.069c0-6.349-5.117-11.498-11.429-11.498s-11.429 5.148-11.429 11.498c0 5.739 4.179 10.495 9.643 11.359v-8.034h-2.903v-3.325h2.903v-2.533c0-2.881 1.707-4.474 4.317-4.474 1.251 0 2.559 0.225 2.559 0.225v2.83h-1.442c-1.419 0-1.863 0.886-1.863 1.797v2.156h3.169l-0.506 3.325h-2.663v8.035c5.464-0.863 9.643-5.619 9.643-11.36z"></path>
</symbol>
<symbol id="icon-image" viewBox="0 0 24 24">
<path fill="none" stroke="#fafafa" style="stroke: var(--color1, #fafafa)" stroke-linejoin="round" stroke-linecap="round" stroke-miterlimit="4" stroke-width="0.375" d="M21.143 8.571v-3.435c0-0.605-0.24-1.185-0.667-1.614s-1.007-0.67-1.612-0.672l-3.435-0.010M21.143 15.429v3.429c0 0.606-0.241 1.188-0.669 1.616s-1.010 0.669-1.616 0.669h-3.429M8.571 2.84l-3.435 0.011c-0.605 0.002-1.185 0.243-1.612 0.672s-0.667 1.009-0.667 1.614v3.434M8.571 21.143h-3.429c-0.606 0-1.188-0.241-1.616-0.669s-0.669-1.010-0.669-1.616v-3.429"></path>
<path fill="#fafafa" style="fill: var(--color1, #fafafa)" d="M12 14.063c0.469 0 0.867-0.164 1.196-0.492s0.492-0.727 0.492-1.196-0.164-0.867-0.492-1.195c-0.328-0.328-0.727-0.492-1.196-0.492s-0.867 0.164-1.195 0.492c-0.328 0.328-0.492 0.727-0.492 1.195s0.164 0.867 0.492 1.196c0.328 0.328 0.727 0.492 1.195 0.492zM9 15.375c-0.206 0-0.383-0.073-0.529-0.22s-0.221-0.324-0.221-0.53v-4.5c0-0.206 0.074-0.383 0.221-0.529s0.323-0.221 0.529-0.221h1.181l0.694-0.75h2.25l0.694 0.75h1.181c0.206 0 0.383 0.074 0.53 0.221s0.22 0.323 0.22 0.529v4.5c0 0.206-0.073 0.383-0.22 0.53s-0.324 0.22-0.53 0.22h-6z"></path>
</symbol>
<symbol id="icon-instagram" viewBox="0 0 23 24">
<path  d="M16.19 2.476c1.262 0.004 2.471 0.507 3.363 1.399s1.395 2.101 1.399 3.363v9.523c-0.004 1.262-0.507 2.471-1.399 3.363s-2.101 1.395-3.363 1.399h-9.523c-1.262-0.004-2.471-0.507-3.363-1.399s-1.395-2.101-1.399-3.363v-9.523c0.004-1.262 0.507-2.471 1.399-3.363s2.101-1.395 3.363-1.399h9.523zM16.19 0.571h-9.523c-3.667 0-6.667 3-6.667 6.667v9.523c0 3.667 3 6.667 6.667 6.667h9.523c3.667 0 6.667-3 6.667-6.667v-9.523c0-3.667-3-6.667-6.667-6.667z"></path>
<path  d="M17.619 7.24c-0.283 0-0.559-0.084-0.794-0.241s-0.418-0.38-0.526-0.641-0.136-0.548-0.081-0.825c0.055-0.277 0.191-0.532 0.391-0.731s0.454-0.336 0.732-0.391c0.277-0.055 0.564-0.027 0.825 0.081s0.484 0.291 0.641 0.526c0.157 0.235 0.241 0.511 0.241 0.794 0 0.188-0.036 0.374-0.108 0.547s-0.177 0.331-0.31 0.464c-0.133 0.133-0.29 0.238-0.464 0.31s-0.359 0.108-0.547 0.108zM11.429 8.192c0.753 0 1.49 0.223 2.117 0.642s1.115 1.014 1.403 1.71c0.288 0.696 0.364 1.462 0.217 2.201s-0.51 1.418-1.043 1.951-1.212 0.896-1.951 1.043c-0.739 0.147-1.505 0.072-2.201-0.217s-1.291-0.777-1.71-1.403c-0.419-0.626-0.642-1.363-0.642-2.116 0.001-1.010 0.403-1.978 1.117-2.693s1.683-1.116 2.693-1.117zM11.429 6.288c-1.13 0-2.235 0.335-3.175 0.963s-1.672 1.52-2.105 2.564c-0.432 1.044-0.546 2.193-0.325 3.302s0.765 2.127 1.564 2.926c0.799 0.799 1.817 1.343 2.926 1.564s2.257 0.107 3.302-0.325c1.044-0.433 1.937-1.165 2.565-2.105s0.963-2.044 0.963-3.175c0-1.516-0.602-2.969-1.674-4.041s-2.525-1.674-4.041-1.674z"></path>
</symbol>
<symbol id="icon-logo" viewBox="0 0 24 24">
<path fill="#8baa36" style="fill: var(--color2, #8baa36)" d="M6.545 0h10.909c3.615 0 6.545 2.931 6.545 6.545v10.909c0 3.615-2.931 6.545-6.545 6.545h-10.909c-3.615 0-6.545-2.931-6.545-6.545v-10.909c0-3.615 2.931-6.545 6.545-6.545z"></path>
<path fill="none" stroke="#fafafa" style="stroke: var(--color1, #fafafa)" stroke-linejoin="round" stroke-linecap="round" stroke-miterlimit="4" stroke-width="1.0909" d="M5.455 5.51v2.975c0 0.849 0.371 1.601 0.945 2.088 0.281 0.238 0.467 0.559 0.467 0.916v4.965c0 0.552 0.474 1 1.059 1s1.059-0.448 1.059-1v-4.965c0-0.357 0.186-0.678 0.467-0.916 0.575-0.487 0.945-1.239 0.945-2.088v0"></path>
<path fill="none" stroke="#fafafa" style="stroke: var(--color1, #fafafa)" stroke-linejoin="round" stroke-linecap="round" stroke-miterlimit="4" stroke-width="1.0909" d="M7.925 8.788v-3.333"></path>
<path fill="none" stroke="#fafafa" style="stroke: var(--color1, #fafafa)" stroke-linejoin="round" stroke-linecap="round" stroke-miterlimit="4" stroke-width="1.0909" d="M17.454 6.156c0-0.368-0.316-0.667-0.706-0.667h-0.706c-1.17 0-2.118 0.895-2.118 2v4c0 0.869 0.591 1.602 1.412 1.877v3.088c0 0.552 0.474 1 1.059 1s1.059-0.448 1.059-1v-10.299z"></path>
</symbol>
<symbol id="icon-logo-footer" viewBox="0 0 24 24">
<path d="M6.545 0h10.909c3.615 0 6.545 2.931 6.545 6.545v10.909c0 3.615-2.931 6.545-6.545 6.545h-10.909c-3.615 0-6.545-2.931-6.545-6.545v-10.909c0-3.615 2.931-6.545 6.545-6.545z"></path>
<path fill="none" stroke="#8BAA36" style="stroke: var(--color4, #8BAA36)" stroke-linejoin="round" stroke-linecap="round" stroke-miterlimit="4" stroke-width="1.0909" d="M5.455 5.51v2.975c0 0.849 0.371 1.601 0.945 2.088 0.281 0.238 0.467 0.559 0.467 0.916v4.965c0 0.552 0.474 1 1.059 1s1.059-0.448 1.059-1v-4.965c0-0.357 0.186-0.678 0.467-0.916 0.575-0.487 0.945-1.239 0.945-2.088v0"></path>
<path fill="none" stroke="#8BAA36" style="stroke: var(--color4, #8BAA36)" stroke-linejoin="round" stroke-linecap="round" stroke-miterlimit="4" stroke-width="1.0909" d="M7.925 8.788v-3.333"></path>
<path fill="none" stroke="#8BAA36" style="stroke: var(--color4, #8BAA36)" stroke-linejoin="round" stroke-linecap="round" stroke-miterlimit="4" stroke-width="1.0909" d="M17.454 6.156c0-0.368-0.316-0.667-0.706-0.667h-0.706c-1.17 0-2.118 0.895-2.118 2v4c0 0.869 0.591 1.602 1.412 1.877v3.088c0 0.552 0.474 1 1.059 1s1.059-0.448 1.059-1v-10.299z"></path>
</symbol>
<symbol id="icon-password" viewBox="0 0 23 24">
<path fill="none" stroke="#fff" style="stroke: var(--color3, #fff)" stroke-linejoin="round" stroke-linecap="round" stroke-miterlimit="4" stroke-width="2.2857" d="M17.143 10.857v-3.429c0-3.156-2.558-5.714-5.714-5.714s-5.714 2.558-5.714 5.714v3.429M6.629 22.286h9.6c1.92 0 2.88 0 3.614-0.374 0.645-0.329 1.17-0.853 1.498-1.498 0.374-0.733 0.374-1.693 0.374-3.614v-0.457c0-1.92 0-2.88-0.374-3.614-0.329-0.645-0.853-1.17-1.498-1.498-0.733-0.374-1.693-0.374-3.614-0.374h-9.6c-1.92 0-2.88 0-3.614 0.374-0.645 0.329-1.17 0.853-1.498 1.498-0.374 0.733-0.374 1.693-0.374 3.614v0.457c0 1.92 0 2.88 0.374 3.614 0.329 0.645 0.853 1.17 1.498 1.498 0.733 0.374 1.694 0.374 3.614 0.374z"></path>
</symbol>
<symbol id="icon-plus" viewBox="0 0 24 24">
<path fill="none" stroke="#fafafa" style="stroke: var(--color1, #fafafa)" stroke-linejoin="round" stroke-linecap="round" stroke-miterlimit="4" stroke-width="2.6667" d="M12 5v14"></path>
<path fill="none" stroke="#fafafa" style="stroke: var(--color1, #fafafa)" stroke-linejoin="round" stroke-linecap="round" stroke-miterlimit="4" stroke-width="2.6667" d="M5 12h14"></path>
</symbol>
<symbol id="icon-search" viewBox="0 0 24 24">
<path fill="none" stroke="#000" stroke-linejoin="round" stroke-linecap="round" stroke-miterlimit="4" stroke-width="2" d="M11 19c4.418 0 8-3.582 8-8s-3.582-8-8-8c-4.418 0-8 3.582-8 8s3.582 8 8 8z"></path>
<path fill="none" stroke="#000" stroke-linejoin="round" stroke-linecap="round" stroke-miterlimit="4" stroke-width="2" d="M21 21l-4.35-4.35"></path>
</symbol>
<symbol id="icon-trash" viewBox="0 0 22 24">
<path fill="none" stroke="#000" stroke-linejoin="round" stroke-linecap="round" stroke-miterlimit="4" stroke-width="2.1818" d="M15.273 5.455v-0.873c0-1.222 0-1.833-0.238-2.3-0.209-0.411-0.543-0.744-0.953-0.953-0.467-0.238-1.078-0.238-2.3-0.238h-1.745c-1.222 0-1.833 0-2.3 0.238-0.411 0.209-0.744 0.543-0.953 0.953-0.238 0.467-0.238 1.078-0.238 2.3v0.873M8.727 11.455v5.455M13.091 11.455v5.455M1.091 5.455h19.636M18.545 5.455v12.218c0 1.833 0 2.749-0.357 3.449-0.314 0.616-0.814 1.116-1.43 1.43-0.7 0.357-1.617 0.357-3.449 0.357h-4.8c-1.833 0-2.749 0-3.449-0.357-0.616-0.314-1.116-0.814-1.43-1.43-0.357-0.7-0.357-1.617-0.357-3.449v-12.218"></path>
</symbol>
<symbol id="icon-twitter" viewBox="0 0 28 24">
<path d="M28.235 3.382c-1.059 0.46-2.18 0.763-3.326 0.9 1.205-0.706 2.111-1.827 2.549-3.153-1.139 0.666-2.384 1.134-3.68 1.382-0.546-0.572-1.202-1.027-1.929-1.338s-1.51-0.47-2.3-0.468c-3.201 0-5.792 2.553-5.792 5.7-0.002 0.438 0.048 0.874 0.149 1.3-2.295-0.108-4.543-0.693-6.599-1.719s-3.876-2.47-5.342-4.24c-0.514 0.867-0.786 1.857-0.788 2.865 0 1.976 1.031 3.724 2.588 4.747-0.923-0.022-1.826-0.266-2.634-0.712v0.071c0 2.765 2 5.065 4.647 5.588-0.498 0.133-1.011 0.2-1.526 0.2-0.366 0.001-0.73-0.035-1.089-0.106 0.736 2.265 2.878 3.912 5.415 3.959-2.062 1.589-4.593 2.448-7.195 2.441-0.462-0.001-0.924-0.028-1.382-0.082 2.648 1.691 5.726 2.585 8.867 2.576 10.668 0 16.496-8.688 16.496-16.224 0-0.247-0.006-0.494-0.018-0.735 1.131-0.805 2.11-1.805 2.89-2.953z"></path>
</symbol>
<symbol id="icon-user" viewBox="0 0 21 24">
<path fill="none" stroke="#fff" style="stroke: var(--color3, #fff)" stroke-linejoin="round" stroke-linecap="round" stroke-miterlimit="4" stroke-width="2.2857" d="M19.429 22.286c0-1.595 0-2.392-0.197-3.041-0.443-1.461-1.587-2.604-3.048-3.048-0.649-0.197-1.446-0.197-3.041-0.197h-5.714c-1.595 0-2.392 0-3.041 0.197-1.461 0.443-2.604 1.587-3.048 3.048-0.197 0.649-0.197 1.446-0.197 3.041M15.429 6.857c0 2.84-2.303 5.143-5.143 5.143s-5.143-2.303-5.143-5.143c0-2.84 2.303-5.143 5.143-5.143s5.143 2.303 5.143 5.143z"></path>
</symbol>
<symbol id="icon-x" viewBox="0 0 24 24">
<path fill="none" stroke="#000" stroke-linejoin="round" stroke-linecap="round" stroke-miterlimit="4" stroke-width="2" d="M18.75 5.25l-13.5 13.5"></path>
<path fill="none" stroke="#000" stroke-linejoin="round" stroke-linecap="round" stroke-miterlimit="4" stroke-width="2" d="M18.75 18.75l-13.5-13.5"></path>
</symbol>
<symbol id="icon-youtube" viewBox="0 0 32 24">
<path d="M31.794 5.299c0-2.812-2.069-5.075-4.626-5.075-3.463-0.162-6.995-0.224-10.604-0.224h-1.125c-3.6 0-7.138 0.063-10.601 0.225-2.55 0-4.619 2.275-4.619 5.087-0.156 2.224-0.223 4.449-0.219 6.674-0.006 2.225 0.065 4.452 0.213 6.681 0 2.812 2.069 5.094 4.619 5.094 3.638 0.169 7.37 0.244 11.164 0.237 3.8 0.012 7.522-0.067 11.164-0.237 2.557 0 4.626-2.281 4.626-5.094 0.15-2.231 0.219-4.456 0.213-6.687 0.014-2.225-0.054-4.452-0.204-6.681zM12.94 18.118v-12.281l9.064 6.137-9.064 6.144z"></path>
</symbol>
<symbol fill="none" xmlns="http://www.w3.org/2000/svg" viewBox="0 0 20 20" id="icon-warning">
    <path d="M10 0C4.47656 0 0 4.47656 0 10C0 15.5234 4.47656 20 10 20C15.5234 20 20 15.5234 20 10C20 4.47656 15.5234 0 10 0ZM9.0625 5.9375C9.0625 5.42188 9.48438 5 10 5C10.5156 5 10.9375 5.41992 10.9375 5.9375V10.9375C10.9375 11.4551 10.5176 11.875 10 11.875C9.48242 11.875 9.0625 11.457 9.0625 10.9375V5.9375ZM10 15.625C9.32187 15.625 8.77188 15.075 8.77188 14.3969C8.77188 13.7188 9.32148 13.1687 10 13.1687C10.6785 13.1687 11.2281 13.7188 11.2281 14.3969C11.2266 15.0742 10.6797 15.625 10 15.625Z" fill="#F6C23E"></path>
  </symbol>
  <symbol fill="none" xmlns="http://www.w3.org/2000/svg" viewBox="0 0 20 20" id="icon-success">
    <path d="M0 10C0 4.47656 4.47656 0 10 0C15.5234 0 20 4.47656 20 10C20 15.5234 15.5234 20 10 20C4.47656 20 0 15.5234 0 10ZM14.5234 8.27344C14.9492 7.84766 14.9492 7.15234 14.5234 6.72656C14.0977 6.30078 13.4023 6.30078 12.9766 6.72656L8.75 10.9531L7.02344 9.22656C6.59766 8.80078 5.90234 8.80078 5.47656 9.22656C5.05078 9.65234 5.05078 10.3477 5.47656 10.7734L7.97656 13.2734C8.40234 13.6992 9.09766 13.6992 9.52344 13.2734L14.5234 8.27344Z" fill="#3CBC81"></path>
  </symbol>
  <symbol fill="none" xmlns="http://www.w3.org/2000/svg" viewBox="0 0 20 20" id="icon-error">
    <path d="M0 10C0 4.47656 4.47656 0 10 0C15.5234 0 20 4.47656 20 10C20 15.5234 15.5234 20 10 20C4.47656 20 0 15.5234 0 10ZM6.83594 8.12891L8.67578 9.96484L6.83594 11.8359C6.47266 12.2031 6.47266 12.7969 6.83594 13.1289C7.20312 13.5273 7.79688 13.5273 8.12891 13.1289L9.96484 11.3242L11.8359 13.1289C12.2031 13.5273 12.7969 13.5273 13.1289 13.1289C13.5273 12.7969 13.5273 12.2031 13.1289 11.8359L11.3242 9.96484L13.1289 8.12891C13.5273 7.79688 13.5273 7.20312 13.1289 6.83594C12.7969 6.47266 12.2031 6.47266 11.8359 6.83594L9.96484 8.67578L8.12891 6.83594C7.79688 6.47266 7.20312 6.47266 6.83594 6.83594C6.47266 7.20312 6.47266 7.79688 6.83594 8.12891Z" fill="#E74A3B"></path>
  </symbol>
<symbol id="icon-hamburger" viewBox="0 0 32 32">
<path fill="none" stroke="#000" stroke-linejoin="round" stroke-linecap="round" stroke-miterlimit="4" stroke-width="2.5" d="M4 16h24M4 8h24M4 24h16"></path>
</symbol>
</defs>
</svg>